<svg xmlns="http://www.w3.org/2000/svg" xmlns:xlink="http://www.w3.org/1999/xlink" width="514" height="514" viewBox="0 0 514 514" fill="none"><g  clip-path="url(#clip-path-0_1)"><path  transform="translate(1, 1)"   fill="url(#linear_fill_0_1_0)"  d="M339.2 0C399.69 0 429.93 0 453.03 11.77Q454.92 12.7329 456.77 13.7692Q458.621 14.8055 460.429 15.9137Q462.238 17.0218 464.001 18.2002Q465.765 19.3785 467.481 20.6251Q469.197 21.8718 470.862 23.1849Q472.528 24.4979 474.141 25.8754Q475.753 27.2528 477.311 28.6925Q478.868 30.1322 480.368 31.6319Q481.868 33.1317 483.307 34.6891Q484.747 36.2466 486.125 37.8594Q487.502 39.4722 488.815 41.1378Q490.128 42.8035 491.375 44.5193Q492.621 46.2352 493.8 47.9988Q494.978 49.7623 496.086 51.5707Q497.194 53.3791 498.231 55.2297Q499.267 57.0802 500.23 58.97C512 82.07 512 112.31 512 172.8L512 339.2C512 399.69 512 429.93 500.23 453.03Q499.267 454.92 498.231 456.77Q497.195 458.621 496.086 460.429Q494.978 462.238 493.8 464.001Q492.622 465.765 491.375 467.481Q490.128 469.197 488.815 470.862Q487.502 472.528 486.125 474.141Q484.747 475.753 483.308 477.311Q481.868 478.868 480.368 480.368Q478.868 481.868 477.311 483.307Q475.753 484.747 474.141 486.125Q472.528 487.502 470.862 488.815Q469.197 490.128 467.481 491.375Q465.765 492.621 464.001 493.8Q462.238 494.978 460.429 496.086Q458.621 497.194 456.77 498.231Q454.92 499.267 453.03 500.23C429.93 512 399.69 512 339.2 512L172.8 512C112.31 512 82.07 512 58.97 500.23Q57.0802 499.267 55.2297 498.231Q53.3791 497.195 51.5707 496.086Q49.7623 494.978 47.9988 493.8Q46.2352 492.622 44.5194 491.375Q42.8035 490.128 41.1378 488.815Q39.4722 487.502 37.8594 486.125Q36.2466 484.747 34.6891 483.307Q33.1317 481.868 31.6319 480.368Q30.1322 478.868 28.6925 477.311Q27.2528 475.753 25.8754 474.141Q24.4979 472.528 23.1849 470.862Q21.8718 469.197 20.6251 467.481Q19.3785 465.765 18.2002 464.001Q17.0218 462.238 15.9137 460.429Q14.8055 458.621 13.7692 456.77Q12.7329 454.92 11.77 453.03C0 429.93 0 399.69 0 339.2L0 172.8C0 112.31 0 82.07 11.77 58.97Q12.7329 57.0802 13.7692 55.2297Q14.8055 53.3791 15.9137 51.5707Q17.0218 49.7623 18.2002 47.9988Q19.3785 46.2352 20.6251 44.5193Q21.8718 42.8035 23.1848 41.1378Q24.4979 39.4722 25.8754 37.8594Q27.2528 36.2466 28.6925 34.6891Q30.1322 33.1317 31.6319 31.6319Q33.1317 30.1322 34.6891 28.6925Q36.2466 27.2528 37.8594 25.8754Q39.4722 24.4979 41.1378 23.1849Q42.8035 21.8718 44.5193 20.6251Q46.2352 19.3785 47.9988 18.2002Q49.7623 17.0218 51.5707 15.9137Q53.3791 14.8055 55.2297 13.7692Q57.0802 12.7329 58.97 11.77C82.07 0 112.31 0 172.8 0L339.2 0Z"></path><path  transform="translate(1, 1)"   fill="url(#linear_fill_0_1_1)" fill-opacity="0.5" d="M339.2 0C399.69 0 429.93 0 453.03 11.77Q454.92 12.7329 456.77 13.7692Q458.621 14.8055 460.429 15.9137Q462.238 17.0218 464.001 18.2002Q465.765 19.3785 467.481 20.6251Q469.197 21.8718 470.862 23.1849Q472.528 24.4979 474.141 25.8754Q475.753 27.2528 477.311 28.6925Q478.868 30.1322 480.368 31.6319Q481.868 33.1317 483.307 34.6891Q484.747 36.2466 486.125 37.8594Q487.502 39.4722 488.815 41.1378Q490.128 42.8035 491.375 44.5193Q492.621 46.2352 493.8 47.9988Q494.978 49.7623 496.086 51.5707Q497.194 53.3791 498.231 55.2297Q499.267 57.0802 500.23 58.97C512 82.07 512 112.31 512 172.8L512 339.2C512 399.69 512 429.93 500.23 453.03Q499.267 454.92 498.231 456.77Q497.195 458.621 496.086 460.429Q494.978 462.238 493.8 464.001Q492.622 465.765 491.375 467.481Q490.128 469.197 488.815 470.862Q487.502 472.528 486.125 474.141Q484.747 475.753 483.308 477.311Q481.868 478.868 480.368 480.368Q478.868 481.868 477.311 483.307Q475.753 484.747 474.141 486.125Q472.528 487.502 470.862 488.815Q469.197 490.128 467.481 491.375Q465.765 492.621 464.001 493.8Q462.238 494.978 460.429 496.086Q458.621 497.194 456.77 498.231Q454.92 499.267 453.03 500.23C429.93 512 399.69 512 339.2 512L172.8 512C112.31 512 82.07 512 58.97 500.23Q57.0802 499.267 55.2297 498.231Q53.3791 497.195 51.5707 496.086Q49.7623 494.978 47.9988 493.8Q46.2352 492.622 44.5194 491.375Q42.8035 490.128 41.1378 488.815Q39.4722 487.502 37.8594 486.125Q36.2466 484.747 34.6891 483.307Q33.1317 481.868 31.6319 480.368Q30.1322 478.868 28.6925 477.311Q27.2528 475.753 25.8754 474.141Q24.4979 472.528 23.1849 470.862Q21.8718 469.197 20.6251 467.481Q19.3785 465.765 18.2002 464.001Q17.0218 462.238 15.9137 460.429Q14.8055 458.621 13.7692 456.77Q12.7329 454.92 11.77 453.03C0 429.93 0 399.69 0 339.2L0 172.8C0 112.31 0 82.07 11.77 58.97Q12.7329 57.0802 13.7692 55.2297Q14.8055 53.3791 15.9137 51.5707Q17.0218 49.7623 18.2002 47.9988Q19.3785 46.2352 20.6251 44.5193Q21.8718 42.8035 23.1848 41.1378Q24.4979 39.4722 25.8754 37.8594Q27.2528 36.2466 28.6925 34.6891Q30.1322 33.1317 31.6319 31.6319Q33.1317 30.1322 34.6891 28.6925Q36.2466 27.2528 37.8594 25.8754Q39.4722 24.4979 41.1378 23.1849Q42.8035 21.8718 44.5193 20.6251Q46.2352 19.3785 47.9988 18.2002Q49.7623 17.0218 51.5707 15.9137Q53.3791 14.8055 55.2297 13.7692Q57.0802 12.7329 58.97 11.77C82.07 0 112.31 0 172.8 0L339.2 0Z"></path><circle cx="257" cy="257" r="229" stroke="rgba(102, 102, 102, 0.25)" stroke-width="2"   ></circle><circle cx="257" cy="257" r="192" stroke="rgba(102, 102, 102, 0.25)" stroke-width="2"   ></circle><path d="M417 257C417 345.366 345.366 417 257 417C168.634 417 97 345.366 97 257C97 168.634 168.634 97 257 97C345.366 97 417 168.634 417 257Z"   fill="#CCCCCC" fill-opacity="0.5"></path><path    stroke="rgba(102, 102, 102, 0.25)" stroke-width="2"    d="M4 486L516.073 486"></path><path    stroke="rgba(102, 102, 102, 0.25)" stroke-width="2"    d="M4 449L516.073 449"></path><path    stroke="rgba(102, 102, 102, 0.25)" stroke-width="2"    d="M4 65L516.073 65"></path><path    stroke="rgba(102, 102, 102, 0.25)" stroke-width="2"    d="M1 513L513 1.00003"></path><path    stroke="rgba(102, 102, 102, 0.25)" stroke-width="2"    d="M1 1L513.019 513.01"></path><path    stroke="rgba(102, 102, 102, 0.25)" stroke-width="2"    d="M1 28L515.714 28"></path><path    stroke="rgba(102, 102, 102, 0.25)" stroke-width="2"    d="M257 1L257 513.016"></path><path    stroke="rgba(102, 102, 102, 0.25)" stroke-width="2"    d="M28 3L28.0022 514.037"></path><path    stroke="rgba(102, 102, 102, 0.25)" stroke-width="2"    d="M65 4L65.0022 515.037"></path><path    stroke="rgba(102, 102, 102, 0.25)" stroke-width="2"    d="M0.999939 257.199L513.073 257.199"></path><path    stroke="rgba(102, 102, 102, 0.25)" stroke-width="2"    d="M449 8L449 515.1"></path><path   transform="translate(1, 1)" stroke="rgba(102, 102, 102, 0.5)" stroke-width="2"    d="M339.2 0C399.69 0 429.93 0 453.03 11.77Q454.92 12.7329 456.77 13.7692Q458.621 14.8055 460.429 15.9137Q462.238 17.0218 464.001 18.2002Q465.765 19.3785 467.481 20.6251Q469.197 21.8718 470.862 23.1849Q472.528 24.4979 474.141 25.8754Q475.753 27.2528 477.311 28.6925Q478.868 30.1322 480.368 31.6319Q481.868 33.1317 483.307 34.6891Q484.747 36.2466 486.125 37.8594Q487.502 39.4722 488.815 41.1378Q490.128 42.8035 491.375 44.5193Q492.621 46.2352 493.8 47.9988Q494.978 49.7623 496.086 51.5707Q497.194 53.3791 498.231 55.2297Q499.267 57.0802 500.23 58.97C512 82.07 512 112.31 512 172.8L512 339.2C512 399.69 512 429.93 500.23 453.03Q499.267 454.92 498.231 456.77Q497.195 458.621 496.086 460.429Q494.978 462.238 493.8 464.001Q492.622 465.765 491.375 467.481Q490.128 469.197 488.815 470.862Q487.502 472.528 486.125 474.141Q484.747 475.753 483.308 477.311Q481.868 478.868 480.368 480.368Q478.868 481.868 477.311 483.307Q475.753 484.747 474.141 486.125Q472.528 487.502 470.862 488.815Q469.197 490.128 467.481 491.375Q465.765 492.621 464.001 493.8Q462.238 494.978 460.429 496.086Q458.621 497.194 456.77 498.231Q454.92 499.267 453.03 500.23C429.93 512 399.69 512 339.2 512L172.8 512C112.31 512 82.07 512 58.97 500.23Q57.0802 499.267 55.2297 498.231Q53.3791 497.195 51.5707 496.086Q49.7623 494.978 47.9988 493.8Q46.2352 492.622 44.5194 491.375Q42.8035 490.128 41.1378 488.815Q39.4722 487.502 37.8594 486.125Q36.2466 484.747 34.6891 483.307Q33.1317 481.868 31.6319 480.368Q30.1322 478.868 28.6925 477.311Q27.2528 475.753 25.8754 474.141Q24.4979 472.528 23.1849 470.862Q21.8718 469.197 20.6251 467.481Q19.3785 465.765 18.2002 464.001Q17.0218 462.238 15.9137 460.429Q14.8055 458.621 13.7692 456.77Q12.7329 454.92 11.77 453.03C0 429.93 0 399.69 0 339.2L0 172.8C0 112.31 0 82.07 11.77 58.97Q12.7329 57.0802 13.7692 55.2297Q14.8055 53.3791 15.9137 51.5707Q17.0218 49.7623 18.2002 47.9988Q19.3785 46.2352 20.6251 44.5193Q21.8718 42.8035 23.1848 41.1378Q24.4979 39.4722 25.8754 37.8594Q27.2528 36.2466 28.6925 34.6891Q30.1322 33.1317 31.6319 31.6319Q33.1317 30.1322 34.6891 28.6925Q36.2466 27.2528 37.8594 25.8754Q39.4722 24.4979 41.1378 23.1849Q42.8035 21.8718 44.5193 20.6251Q46.2352 19.3785 47.9988 18.2002Q49.7623 17.0218 51.5707 15.9137Q53.3791 14.8055 55.2297 13.7692Q57.0802 12.7329 58.97 11.77C82.07 0 112.31 0 172.8 0L339.2 0Z"></path></g><defs><clipPath id="clip-path-0_1"><path d="M411.218 1.47457Q393.17 0 340.2 0L173.8 0Q120.832 4.76837e-07 102.782 1.47457Q75.5732 3.69745 59.516 11.879Q27.958 27.958 11.879 59.516Q3.69745 75.5732 1.47457 102.782Q0 120.832 0 173.8L0 340.2Q4.76837e-07 393.168 1.47457 411.218Q3.69745 438.427 11.879 454.484Q27.9578 486.041 59.516 502.121Q75.5737 510.303 102.782 512.525Q120.833 514 173.8 514L340.2 514Q393.167 514 411.218 512.525Q438.426 510.303 454.484 502.121Q486.043 486.042 502.121 454.484Q510.303 438.426 512.525 411.218Q514 393.166 514 340.2L514 173.8Q514 120.833 512.525 102.782Q510.303 75.5738 502.121 59.516Q486.042 27.9578 454.484 11.879Q438.427 3.69744 411.218 1.47457Z" fill="white"/></clipPath><radialGradient id="linear_fill_0_1_0" cx="0" cy="0" r="1" gradientTransform="translate(256 256) rotate(-180) scale(256, 256)" gradientUnits="userSpaceOnUse"><stop offset="0" stop-color="#F4F4F4"  /><stop offset="1" stop-color="#F1F1F1"  /></radialGradient><linearGradient id="linear_fill_0_1_1" x1="256" y1="512" x2="256" y2="0" gradientUnits="userSpaceOnUse"><stop offset="0" stop-color="#D4D4D4"  /><stop offset="1" stop-color="#DADADA" stop-opacity="0" /></linearGradient></defs></svg>